<svg width="45" height="32" viewBox="0 0 45 32" fill="none" xmlns="http://www.w3.org/2000/svg">
<path d="M3.66577 5.23337L4.05343 5.48909L21.7166 17.1408C21.7165 17.1407 21.7166 17.1407 21.7169 17.1409C21.7169 17.1409 21.717 17.1409 21.717 17.141C21.7174 17.1412 21.7182 17.1417 21.7194 17.1423L21.7307 17.1482C21.7318 17.1487 21.7331 17.1494 21.7346 17.1501C21.7446 17.1551 21.7623 17.164 21.7794 17.1738C21.801 17.1861 21.8236 17.1983 21.847 17.2103L21.8497 17.2117C21.9733 17.277 22.0968 17.3276 22.2193 17.3602L22.2216 17.3608C22.2223 17.361 22.2234 17.3612 22.2251 17.3615L22.238 17.364L3.66577 5.23337ZM3.66577 5.23337V5.69778V25.4965C3.66577 26.7001 4.62189 27.6909 5.81126 27.6909H39.547C40.7364 27.6909 41.6931 26.7002 41.6937 25.496V25.4958V5.69778V5.23337L41.3061 5.48909L23.6429 17.1408C23.643 17.1407 23.6429 17.1407 23.6427 17.1408C23.6427 17.1409 23.6426 17.1409 23.6425 17.141C23.6421 17.1412 23.6413 17.1417 23.6401 17.1423L23.6288 17.1482C23.6204 17.1524 23.5998 17.1625 23.5801 17.1738C23.5585 17.1861 23.5359 17.1983 23.5125 17.2103L23.5102 17.2115C23.3854 17.2771 23.2625 17.3277 23.1402 17.3602L23.1402 17.3602L23.1379 17.3608C23.1372 17.361 23.136 17.3612 23.1344 17.3615L23.1215 17.364C23.1159 17.3652 23.1085 17.3667 23.1002 17.3688C22.9574 17.4039 22.8176 17.4236 22.6815 17.4236H22.6815H22.6815H22.6815H22.6815H22.6814H22.6814H22.6814H22.6814H22.6814H22.6814H22.6813H22.6813H22.6813H22.6813H22.6813H22.6813H22.6812H22.6812H22.6812H22.6812H22.6812H22.6812H22.6811H22.6811H22.6811H22.6811H22.6811H22.6811H22.681H22.681H22.681H22.681H22.681H22.681H22.681H22.6809H22.6809H22.6809H22.6809H22.6809H22.6809H22.6808H22.6808H22.6808H22.6808H22.6808H22.6808H22.6808H22.6807H22.6807H22.6807H22.6807H22.6807H22.6807H22.6806H22.6806H22.6806H22.6806H22.6806H22.6805H22.6805H22.6805H22.6805H22.6805H22.6805H22.6804H22.6804H22.6804H22.6804H22.6804H22.6804H22.6803H22.6803H22.6803H22.6803H22.6803H22.6803H22.6802H22.6802H22.6802H22.6802H22.6802H22.6802H22.6801H22.6801H22.6801H22.6801H22.6801H22.6801H22.68H22.68H22.68H22.68H22.68H22.68H22.6799H22.6799H22.6799H22.6799H22.6799H22.6799H22.6798H22.6798H22.6798H22.6798H22.6798H22.6798H22.6797H22.6797H22.6797H22.6797H22.6797H22.6797H22.6796H22.6796H22.6796H22.6796H22.6796H22.6795H22.6795H22.6795H22.6795H22.6795H22.6795H22.6794H22.6794H22.6794H22.6794H22.6794H22.6793H22.6793H22.6793H22.6793H22.6793H22.6792H22.6792H22.6792H22.6792H22.6792H22.6791H22.6791H22.6791H22.6791H22.6791H22.6791H22.679H22.679H22.679H22.679H22.679H22.679H22.679H22.6789H22.6789H22.6789H22.6789H22.6789H22.6789H22.6788H22.6788H22.6788H22.6788H22.6788H22.6788H22.6787H22.6787H22.6787H22.6787H22.6787H22.6787H22.6786H22.6786H22.6786H22.6786H22.6786H22.6786H22.6785H22.6785H22.6785H22.6785H22.6785H22.6785H22.6785H22.6784H22.6784H22.6784H22.6784H22.6784H22.6784H22.6783H22.6783H22.6783H22.6783H22.6783H22.6783H22.6782H22.6782H22.6782H22.6782H22.6782H22.6782H22.6781H22.6781H22.6781H22.6781H22.6781H22.6781H22.678H22.678H22.678H22.678H22.678C22.5425 17.4236 22.4028 17.4035 22.2588 17.3687L3.66577 5.23337ZM37.0204 3.85787L37.7142 3.3993H36.8826H8.47574H7.64406L8.33789 3.85787L22.5413 13.2451L22.6792 13.3362L22.817 13.2451L37.0204 3.85787ZM5.81126 0.25H39.547C42.4102 0.25 44.7505 2.64152 44.7499 5.59433V25.4958C44.7499 28.4481 42.4096 30.8396 39.547 30.8396H5.81126C2.94873 30.8396 0.608398 28.4481 0.608398 25.4958V5.59377C0.608398 2.64152 2.94873 0.25 5.81126 0.25Z" fill="white" stroke="#383838" stroke-width="0.5"/>
</svg>
