<svg width="15" height="31" viewBox="0 0 15 31" fill="none" xmlns="http://www.w3.org/2000/svg">
<path d="M0.478942 16.5106H3.73393V30.5C3.73393 30.7762 3.94831 31 4.21287 31H9.73182C9.99639 31 10.2108 30.7762 10.2108 30.5V16.5765H13.9526C14.196 16.5765 14.4007 16.3859 14.4284 16.1336L14.9967 10.9834C15.0124 10.8417 14.9693 10.6998 14.8785 10.5935C14.7876 10.4871 14.6576 10.4262 14.5211 10.4262H10.211V7.1978C10.211 6.2246 10.7129 5.7311 11.703 5.7311C11.8441 5.7311 14.5211 5.7311 14.5211 5.7311C14.7856 5.7311 15 5.5072 15 5.2311V0.5037C15 0.2275 14.7856 0.0037 14.5211 0.0037H10.6373C10.6099 0.0023 10.5491 0 10.4594 0C9.78556 0 7.44324 0.1381 5.59299 1.9151C3.54293 3.8843 3.8279 6.2421 3.896 6.6509V10.4261H0.478942C0.214375 10.4261 0 10.6499 0 10.9261V16.0105C0 16.2867 0.214375 16.5106 0.478942 16.5106Z" fill="white"/>
</svg>
