<svg width="31" height="31" viewBox="0 0 31 31" fill="none" xmlns="http://www.w3.org/2000/svg">
<path d="M15.5 10.85C14.2667 10.85 13.084 11.3399 12.212 12.212C11.3399 13.084 10.85 14.2667 10.85 15.5C10.85 16.7333 11.3399 17.916 12.212 18.788C13.084 19.6601 14.2667 20.15 15.5 20.15C16.7333 20.15 17.916 19.6601 18.788 18.788C19.6601 17.916 20.15 16.7333 20.15 15.5C20.15 14.2667 19.6601 13.084 18.788 12.212C17.916 11.3399 16.7333 10.85 15.5 10.85ZM15.5 7.75C17.5554 7.75 19.5267 8.56651 20.9801 10.0199C22.4335 11.4733 23.25 13.4446 23.25 15.5C23.25 17.5554 22.4335 19.5267 20.9801 20.9801C19.5267 22.4335 17.5554 23.25 15.5 23.25C13.4446 23.25 11.4733 22.4335 10.0199 20.9801C8.56651 19.5267 7.75 17.5554 7.75 15.5C7.75 13.4446 8.56651 11.4733 10.0199 10.0199C11.4733 8.56651 13.4446 7.75 15.5 7.75ZM25.575 7.3625C25.575 7.87636 25.3709 8.36917 25.0075 8.73252C24.6442 9.09587 24.1514 9.3 23.6375 9.3C23.1236 9.3 22.6308 9.09587 22.2675 8.73252C21.9041 8.36917 21.7 7.87636 21.7 7.3625C21.7 6.84864 21.9041 6.35583 22.2675 5.99248C22.6308 5.62913 23.1236 5.425 23.6375 5.425C24.1514 5.425 24.6442 5.62913 25.0075 5.99248C25.3709 6.35583 25.575 6.84864 25.575 7.3625ZM15.5 3.1C11.6653 3.1 11.0391 3.11085 9.25505 3.1899C8.03985 3.24725 7.22455 3.41 6.46815 3.7045C5.79545 3.9649 5.3103 4.27645 4.79415 4.79415C4.30901 5.26287 3.936 5.8351 3.70295 6.46815C3.40845 7.22765 3.2457 8.0414 3.1899 9.25505C3.1093 10.9662 3.1 11.5645 3.1 15.5C3.1 19.3347 3.11085 19.9609 3.1899 21.7449C3.24725 22.9586 3.41 23.7754 3.70295 24.5303C3.96645 25.2045 4.27645 25.6897 4.79105 26.2043C5.3134 26.7251 5.79855 27.0366 6.46505 27.2939C7.23075 27.59 8.04605 27.7543 9.25505 27.8101C10.9662 27.8907 11.5645 27.9 15.5 27.9C19.3347 27.9 19.9609 27.8891 21.7449 27.8101C22.957 27.7527 23.7739 27.59 24.5303 27.297C25.2015 27.0351 25.6897 26.7235 26.2043 26.209C26.7267 25.6866 27.0382 25.2015 27.2955 24.535C27.59 23.7708 27.7543 22.9539 27.8101 21.7449C27.8907 20.0337 27.9 19.4354 27.9 15.5C27.9 11.6653 27.8891 11.0391 27.8101 9.25505C27.7527 8.04295 27.59 7.22455 27.2955 6.46815C27.0619 5.83575 26.6896 5.26374 26.2058 4.79415C25.7373 4.30876 25.165 3.93571 24.5318 3.70295C23.7723 3.40845 22.957 3.2457 21.7449 3.1899C20.0337 3.1093 19.4354 3.1 15.5 3.1ZM15.5 0C19.7113 0 20.2368 0.0154999 21.8891 0.0929999C23.5398 0.1705 24.6636 0.42935 25.6525 0.81375C26.6755 1.20745 27.5373 1.74065 28.3991 2.6009C29.1873 3.37574 29.7971 4.31301 30.1862 5.3475C30.5691 6.33485 30.8295 7.46015 30.907 9.1109C30.9799 10.7632 31 11.2886 31 15.5C31 19.7113 30.9845 20.2368 30.907 21.8891C30.8295 23.5398 30.5691 24.6636 30.1862 25.6525C29.7982 26.6876 29.1882 27.6251 28.3991 28.3991C27.624 29.187 26.6868 29.7968 25.6525 30.1862C24.6651 30.5691 23.5398 30.8295 21.8891 30.907C20.2368 30.9799 19.7113 31 15.5 31C11.2886 31 10.7632 30.9845 9.1109 30.907C7.46015 30.8295 6.3364 30.5691 5.3475 30.1862C4.3126 29.7979 3.37517 29.188 2.6009 28.3991C1.81258 27.6244 1.20269 26.6871 0.81375 25.6525C0.42935 24.6651 0.1705 23.5398 0.0929999 21.8891C0.0201499 20.2368 0 19.7113 0 15.5C0 11.2886 0.0154999 10.7632 0.0929999 9.1109C0.1705 7.4586 0.42935 6.3364 0.81375 5.3475C1.20162 4.31238 1.81165 3.37485 2.6009 2.6009C3.37539 1.81231 4.31276 1.20238 5.3475 0.81375C6.3364 0.42935 7.4586 0.1705 9.1109 0.0929999C10.7632 0.0201499 11.2886 0 15.5 0Z" fill="white"/>
</svg>
