<svg width="30" height="28" viewBox="0 0 30 28" fill="none" xmlns="http://www.w3.org/2000/svg">
<path d="M15 22.25C16.875 22.25 18.469 21.594 19.782 20.282C21.094 18.969 21.75 17.375 21.75 15.5C21.75 13.625 21.094 12.031 19.782 10.718C18.469 9.406 16.875 8.75 15 8.75C13.125 8.75 11.531 9.406 10.218 10.718C8.906 12.031 8.25 13.625 8.25 15.5C8.25 17.375 8.906 18.969 10.218 20.282C11.531 21.594 13.125 22.25 15 22.25ZM3 27.5C2.175 27.5 1.469 27.2065 0.882 26.6195C0.294 26.0315 0 25.325 0 24.5V6.5C0 5.675 0.294 4.969 0.882 4.382C1.469 3.794 2.175 3.5 3 3.5H7.725L9.6 1.475C9.875 1.15 10.206 0.906 10.593 0.743C10.981 0.581 11.3875 0.5 11.8125 0.5H18.1875C18.6125 0.5 19.019 0.581 19.407 0.743C19.794 0.906 20.125 1.15 20.4 1.475L22.275 3.5H27C27.825 3.5 28.5315 3.794 29.1195 4.382C29.7065 4.969 30 5.675 30 6.5V24.5C30 25.325 29.7065 26.0315 29.1195 26.6195C28.5315 27.2065 27.825 27.5 27 27.5H3Z" fill="white"/>
</svg>
